<svg width="22" height="22" viewBox="0 0 22 22" fill="none" xmlns="http://www.w3.org/2000/svg">
<path d="M6.40527 13.0776C6.42871 13.5929 6.90625 14 7.48828 14C8.07031 14 8.54785 13.5941 8.57227 13.0797L8.99902 4.05579C9.02637 3.47998 8.50684 3 7.85645 3H7.14355C6.49414 3 5.97559 3.47852 6.00098 4.05347L6.40527 13.0776Z" fill="white"/>
<path d="M13.4053 13.0776C13.4287 13.5929 13.9062 14 14.4883 14C15.0703 14 15.5479 13.5941 15.5723 13.0797L15.999 4.05579C16.0166 3.67834 15.7998 3.34216 15.4648 3.15527C15.2891 3.05701 15.0811 3 14.8564 3H14.1436C13.4941 3 12.9756 3.47852 13.001 4.05347L13.4053 13.0776Z" fill="white"/>
<path d="M9 17.5C9 18.3284 8.32812 19 7.5 19C6.67188 19 6 18.3284 6 17.5C6 16.6716 6.67188 16 7.5 16C8.32812 16 9 16.6716 9 17.5Z" fill="white"/>
<path d="M14.5 19C15.3281 19 16 18.3284 16 17.5C16 16.6716 15.3281 16 14.5 16C13.6719 16 13 16.6716 13 17.5C13 18.3284 13.6719 19 14.5 19Z" fill="white"/>
</svg>
