<svg width="10" height="16" viewBox="0 0 10 16" fill="none" xmlns="http://www.w3.org/2000/svg">
<path d="M0.405273 10.0776C0.428711 10.5929 0.90625 11 1.48828 11C2.07031 11 2.54785 10.5941 2.57227 10.0797L2.99902 1.05579C3.02637 0.47998 2.50684 0 1.85645 0H1.14355C0.494141 0 -0.0244141 0.478516 0.000976562 1.05347L0.405273 10.0776Z" fill="white"/>
<path d="M7.40527 10.0776C7.42871 10.5929 7.90625 11 8.48828 11C9.07031 11 9.54785 10.5941 9.57227 10.0797L9.99902 1.05579C10.0166 0.678345 9.7998 0.342163 9.46484 0.155273C9.28906 0.0570068 9.08105 0 8.85645 0H8.14355C7.49414 0 6.97559 0.478516 7.00098 1.05347L7.40527 10.0776Z" fill="white"/>
<path d="M3 14.5C3 15.3284 2.32812 16 1.5 16C0.671875 16 0 15.3284 0 14.5C0 13.6716 0.671875 13 1.5 13C2.32812 13 3 13.6716 3 14.5Z" fill="white"/>
<path d="M8.5 16C9.32812 16 10 15.3284 10 14.5C10 13.6716 9.32812 13 8.5 13C7.67188 13 7 13.6716 7 14.5C7 15.3284 7.67188 16 8.5 16Z" fill="white"/>
</svg>
