<svg width="22" height="22" viewBox="0 0 22 22" fill="none" xmlns="http://www.w3.org/2000/svg">
<path fill-rule="evenodd" clip-rule="evenodd" d="M7.74817 18.3886C8.72901 18.7962 9.82132 19 11.0251 19C11.6938 19 12.3682 18.9243 13.0481 18.7729C13.6741 18.6463 14.2269 18.4672 14.7066 18.2355C14.7913 18.1945 14.8308 18.0926 14.8001 18.0005L14.3876 16.7614C14.3509 16.6514 14.2306 16.5999 14.1291 16.6478C13.6634 16.8675 13.1804 17.0285 12.6803 17.131C12.1118 17.2591 11.5601 17.3231 11.0251 17.3231C10.1 17.3231 9.25845 17.1659 8.50052 16.8515C7.7426 16.5371 7.09056 16.0946 6.54441 15.524C6.0094 14.9651 5.597 14.3013 5.30721 13.5328C5.01742 12.7525 4.87252 11.8967 4.87252 10.9651C4.87252 10.0568 5.01742 9.21834 5.30721 8.44978C5.60815 7.68122 6.0317 7.01747 6.57785 6.45852C7.124 5.88792 7.78161 5.44541 8.55068 5.131C9.31975 4.81659 10.1668 4.65939 11.092 4.65939C12.0171 4.65939 12.8586 4.80495 13.6165 5.09607C14.3856 5.37555 15.0432 5.78311 15.5893 6.31878C16.1466 6.85444 16.5702 7.48908 16.86 8.22271C17.1609 8.95633 17.3114 9.76565 17.3114 10.6507C17.3114 11.3261 17.2612 11.885 17.1609 12.3275C17.0606 12.7584 16.9157 13.0786 16.7262 13.2882C16.5479 13.4978 16.3305 13.6026 16.0742 13.6026C15.8513 13.6026 15.6618 13.5211 15.5057 13.3581C15.3497 13.1951 15.2717 12.9039 15.2717 12.4847V7.01941C15.2717 6.91222 15.1885 6.82533 15.0859 6.82533H13.1837C13.0811 6.82533 12.9979 6.91222 12.9979 7.01941V7.32352C12.9979 7.50442 12.7717 7.59582 12.6396 7.47892C12.5364 7.38768 12.4274 7.30373 12.3124 7.22707C11.7886 6.87773 11.1588 6.70306 10.4232 6.70306C9.69871 6.70306 9.0411 6.88937 8.45037 7.26201C7.87078 7.623 7.40822 8.13537 7.0627 8.79913C6.72832 9.46288 6.56113 10.2314 6.56113 11.1048C6.56113 11.9782 6.73389 12.7525 7.07941 13.4279C7.42494 14.0917 7.8875 14.6099 8.46708 14.9825C9.05782 15.3435 9.70986 15.524 10.4232 15.524C11.1923 15.524 11.8332 15.3493 12.3459 15C12.6168 14.8193 12.8534 14.5966 13.0558 14.3319C13.1529 14.2047 13.3607 14.2271 13.4371 14.3689C13.5285 14.539 13.6385 14.6911 13.767 14.8253C14.2128 15.2911 14.8147 15.524 15.5726 15.524C16.2637 15.524 16.8656 15.3319 17.3783 14.9476C17.891 14.5633 18.2867 14.0044 18.5653 13.2707C18.8551 12.5371 19 11.6521 19 10.6157C19 9.52111 18.8105 8.51383 18.4316 7.59389C18.0526 6.6623 17.512 5.85298 16.8098 5.16594C16.1076 4.47889 15.2717 3.94905 14.302 3.57642C13.3323 3.19214 12.2623 3 11.092 3C9.87705 3 8.7736 3.19796 7.78161 3.59389C6.78962 3.98981 5.93696 4.54876 5.22362 5.27074C4.51028 5.99272 3.95855 6.83697 3.56844 7.80349C3.18948 8.77001 3 9.82387 3 10.9651C3 12.1179 3.18948 13.1834 3.56844 14.1616C3.95855 15.1397 4.5047 15.9898 5.2069 16.7118C5.92024 17.4338 6.76733 17.9927 7.74817 18.3886ZM12.0115 13.2358C11.6994 13.4221 11.3427 13.5153 10.9415 13.5153C10.5402 13.5153 10.1836 13.4163 9.87147 13.2183C9.55939 13.0204 9.31418 12.7467 9.13584 12.3974C8.95751 12.0364 8.86834 11.6055 8.86834 11.1048C8.86834 10.6041 8.95751 10.179 9.13584 9.82969C9.31418 9.4687 9.55939 9.19505 9.87147 9.00873C10.1836 8.82242 10.5402 8.72926 10.9415 8.72926C11.3427 8.72926 11.6994 8.82242 12.0115 9.00873C12.3347 9.19505 12.5855 9.46288 12.7638 9.81223C12.9422 10.1616 13.0313 10.5924 13.0313 11.1048C13.0313 11.6055 12.9422 12.0364 12.7638 12.3974C12.5855 12.7584 12.3347 13.0378 12.0115 13.2358Z" fill="white"/>
</svg>
