<svg width="16" height="16" viewBox="0 0 16 16" fill="none" xmlns="http://www.w3.org/2000/svg">
<path fill-rule="evenodd" clip-rule="evenodd" d="M1.45443 0L1.39062 0.00130208L1.33333 0C0.973958 0 0.647135 0.155273 0.407552 0.407715C0.154948 0.647461 0 0.973796 0 1.33333L0.00130208 1.38997L0 1.45459V14.5454C0 14.5671 0.00130208 14.5885 0.00130208 14.61C0.00130208 14.6289 0 14.6476 0 14.6667C0 15.0262 0.154948 15.3525 0.407552 15.5923C0.647135 15.8447 0.973958 16 1.33333 16C1.35286 16 1.3724 15.9995 1.39062 15.9987C1.41146 15.9995 1.43229 16 1.45443 16H14.5456C14.5677 16 14.5885 15.9995 14.6094 15.9987C14.6276 15.9995 14.6471 16 14.6667 16C15.026 16 15.3529 15.8447 15.5924 15.5923C15.8451 15.3525 16 15.0262 16 14.6667C16 14.6476 15.9987 14.6289 15.9987 14.61C15.9987 14.5885 16 14.5671 16 14.5454V1.45459L15.9987 1.38997L16 1.33333C16 0.973796 15.8451 0.647461 15.5924 0.407715C15.3529 0.155273 15.026 0 14.6667 0L14.6094 0.00130208L14.5456 0H1.45443ZM13.3333 13.3333V2.66667H2.66667V13.3333H13.3333Z" fill="white"/>
</svg>
