<svg width="22" height="22" viewBox="0 0 22 22" fill="none" xmlns="http://www.w3.org/2000/svg">
<path fill-rule="evenodd" clip-rule="evenodd" d="M4.45443 3L4.39062 3.0013L4.33333 3C3.97396 3 3.64714 3.15527 3.40755 3.40771C3.15495 3.64746 3 3.9738 3 4.33333L3.0013 4.38997L3 4.45459V17.5454C3 17.5671 3.0013 17.5885 3.0013 17.61C3.0013 17.6289 3 17.6476 3 17.6667C3 18.0262 3.15495 18.3525 3.40755 18.5923C3.64714 18.8447 3.97396 19 4.33333 19C4.35286 19 4.3724 18.9995 4.39062 18.9987C4.41146 18.9995 4.43229 19 4.45443 19H17.5456C17.5677 19 17.5885 18.9995 17.6094 18.9987C17.6276 18.9995 17.6471 19 17.6667 19C18.026 19 18.3529 18.8447 18.5924 18.5923C18.8451 18.3525 19 18.0262 19 17.6667C19 17.6476 18.9987 17.6289 18.9987 17.61C18.9987 17.5885 19 17.5671 19 17.5454V4.45459L18.9987 4.38997L19 4.33333C19 3.9738 18.8451 3.64746 18.5924 3.40771C18.3529 3.15527 18.026 3 17.6667 3L17.6094 3.0013L17.5456 3H4.45443ZM16.3333 16.3333V5.66667H5.66667V16.3333H16.3333Z" fill="white"/>
</svg>
