<svg width="20" height="14" viewBox="0 0 20 14" fill="none" xmlns="http://www.w3.org/2000/svg">
<path d="M4.44444 0.541064C4.44444 0.0306168 3.73023 -0.194861 3.37592 0.203731L0.131479 3.85371C0.0463685 3.94946 0 4.06843 0 4.19104V10C0 12.2091 1.98985 14 4.44444 14C6.89904 14 8.88889 12.2091 8.88889 10C8.88889 7.97357 7.21452 6.29907 5.04296 6.036C4.71455 5.99622 4.44444 5.75828 4.44444 5.46005V0.541064Z" fill="white"/>
<path d="M15.5556 0.541064C15.5556 0.0306168 14.8413 -0.194861 14.487 0.203731L11.2426 3.85371C11.1575 3.94946 11.1111 4.06843 11.1111 4.19104V10C11.1111 12.2091 13.101 14 15.5556 14C18.0102 14 20 12.2091 20 10C20 7.97357 18.3256 6.29907 16.1541 6.036C15.8257 5.99622 15.5556 5.75828 15.5556 5.46005V0.541064Z" fill="white"/>
</svg>
