<svg width="22" height="22" viewBox="0 0 22 22" fill="none" xmlns="http://www.w3.org/2000/svg">
<path d="M5.44444 4.54106C5.44444 4.03062 4.73023 3.80514 4.37592 4.20373L1.13148 7.85371C1.04637 7.94946 1 8.06843 1 8.19104V14C1 16.2091 2.98985 18 5.44444 18C7.89904 18 9.88889 16.2091 9.88889 14C9.88889 11.9736 8.21452 10.2991 6.04296 10.036C5.71455 9.99622 5.44444 9.75828 5.44444 9.46005V4.54106Z" fill="white"/>
<path d="M16.5556 4.54106C16.5556 4.03062 15.8413 3.80514 15.487 4.20373L12.2426 7.85371C12.1575 7.94946 12.1111 8.06843 12.1111 8.19104V14C12.1111 16.2091 14.101 18 16.5556 18C19.0102 18 21 16.2091 21 14C21 11.9736 19.3256 10.2991 17.1541 10.036C16.8257 9.99622 16.5556 9.75828 16.5556 9.46005V4.54106Z" fill="white"/>
</svg>
