<svg width="15" height="15" viewBox="0 0 15 15" fill="none" xmlns="http://www.w3.org/2000/svg">
<path d="M14.509 14.509C13.9879 15.0302 13.1058 14.9914 12.5377 14.4233L7.43798 9.3236L2.33816 14.4234C1.77008 14.9915 0.887692 15.0298 0.366914 14.509C-0.153748 13.9884 -0.11554 13.1059 0.452539 12.5378L5.55236 7.43798L0.452655 2.33827C-0.115424 1.77019 -0.154209 0.888037 0.366914 0.366914C0.888037 -0.154209 1.77019 -0.115424 2.33827 0.452656L7.43798 5.55236L12.5378 0.45254C13.1059 -0.115539 13.9884 -0.153749 14.509 0.366914C15.0298 0.887692 14.9915 1.77008 14.4234 2.33816L9.3236 7.43798L14.4233 12.5377C14.9914 13.1058 15.0302 13.9879 14.509 14.509Z" fill="white"/>
</svg>
