<svg width="22" height="22" viewBox="0 0 22 22" fill="none" xmlns="http://www.w3.org/2000/svg">
<path d="M18.509 18.509C17.9879 19.0302 17.1058 18.9914 16.5377 18.4233L11.438 13.3236L6.33816 18.4234C5.77008 18.9915 4.88769 19.0298 4.36691 18.509C3.84625 17.9884 3.88446 17.1059 4.45254 16.5378L9.55236 11.438L4.45266 6.33827C3.88458 5.77019 3.84579 4.88804 4.36691 4.36691C4.88804 3.84579 5.77019 3.88458 6.33827 4.45266L11.438 9.55236L16.5378 4.45254C17.1059 3.88446 17.9884 3.84625 18.509 4.36691C19.0298 4.88769 18.9915 5.77008 18.4234 6.33816L13.3236 11.438L18.4233 16.5377C18.9914 17.1058 19.0302 17.9879 18.509 18.509Z" fill="white"/>
</svg>
