<svg width="16" height="16" viewBox="0 0 16 16" fill="none" xmlns="http://www.w3.org/2000/svg">
<path fill-rule="evenodd" clip-rule="evenodd" d="M4.74817 15.3886C5.72901 15.7962 6.82132 16 8.02508 16C8.69384 16 9.36816 15.9243 10.0481 15.7729C10.6741 15.6463 11.2269 15.4672 11.7066 15.2355C11.7913 15.1945 11.8308 15.0926 11.8001 15.0005L11.3876 13.7614C11.3509 13.6514 11.2306 13.5999 11.1291 13.6478C10.6634 13.8675 10.1804 14.0285 9.68025 14.131C9.11181 14.2591 8.56008 14.3231 8.02508 14.3231C7.09997 14.3231 6.25845 14.1659 5.50052 13.8515C4.7426 13.5371 4.09056 13.0946 3.54441 12.524C3.0094 11.9651 2.597 11.3013 2.30721 10.5328C2.01742 9.75255 1.87252 8.89665 1.87252 7.96507C1.87252 7.05677 2.01742 6.21834 2.30721 5.44978C2.60815 4.68122 3.0317 4.01747 3.57785 3.45852C4.124 2.88792 4.78161 2.44541 5.55068 2.131C6.31975 1.81659 7.16684 1.65939 8.09195 1.65939C9.01707 1.65939 9.85859 1.80495 10.6165 2.09607C11.3856 2.37555 12.0432 2.78311 12.5893 3.31878C13.1466 3.85444 13.5702 4.48908 13.86 5.22271C14.1609 5.95633 14.3114 6.76565 14.3114 7.65065C14.3114 8.32605 14.2612 8.88501 14.1609 9.32751C14.0606 9.75837 13.9157 10.0786 13.7262 10.2882C13.5479 10.4978 13.3305 10.6026 13.0742 10.6026C12.8513 10.6026 12.6618 10.5211 12.5057 10.3581C12.3497 10.1951 12.2717 9.90393 12.2717 9.48472V4.01941C12.2717 3.91222 12.1885 3.82533 12.0859 3.82533H10.1837C10.0811 3.82533 9.99791 3.91222 9.99791 4.01941V4.32352C9.99791 4.50442 9.77174 4.59582 9.63959 4.47892C9.53644 4.38768 9.42739 4.30373 9.31243 4.22707C8.78857 3.87773 8.15883 3.70306 7.4232 3.70306C6.69871 3.70306 6.0411 3.88937 5.45037 4.26201C4.87078 4.623 4.40822 5.13537 4.0627 5.79913C3.72832 6.46288 3.56113 7.23144 3.56113 8.1048C3.56113 8.97817 3.73389 9.75255 4.07941 10.4279C4.42494 11.0917 4.8875 11.6099 5.46708 11.9825C6.05782 12.3435 6.70986 12.524 7.4232 12.524C8.19227 12.524 8.83316 12.3493 9.34587 12C9.61678 11.8193 9.85341 11.5966 10.0558 11.3319C10.1529 11.2047 10.3607 11.2271 10.4371 11.3689C10.5285 11.539 10.6385 11.6911 10.767 11.8253C11.2128 12.2911 11.8147 12.524 12.5726 12.524C13.2637 12.524 13.8656 12.3319 14.3783 11.9476C14.891 11.5633 15.2867 11.0044 15.5653 10.2707C15.8551 9.53712 16 8.65211 16 7.61572C16 6.52111 15.8105 5.51383 15.4316 4.59389C15.0526 3.6623 14.512 2.85298 13.8098 2.16594C13.1076 1.47889 12.2717 0.949054 11.302 0.576419C10.3323 0.19214 9.26228 0 8.09195 0C6.87705 0 5.7736 0.197962 4.78161 0.593886C3.78962 0.989811 2.93696 1.54876 2.22362 2.27074C1.51028 2.99272 0.958551 3.83697 0.568443 4.80349C0.189481 5.77001 0 6.82387 0 7.96507C0 9.1179 0.189481 10.1834 0.568443 11.1616C0.958551 12.1397 1.5047 12.9898 2.2069 13.7118C2.92024 14.4338 3.76733 14.9927 4.74817 15.3886ZM9.01149 10.2358C8.69941 10.4221 8.34274 10.5153 7.94148 10.5153C7.54023 10.5153 7.18356 10.4163 6.87147 10.2183C6.55939 10.0204 6.31418 9.74672 6.13584 9.39738C5.95751 9.03639 5.86834 8.60553 5.86834 8.1048C5.86834 7.60408 5.95751 7.17904 6.13584 6.82969C6.31418 6.4687 6.55939 6.19505 6.87147 6.00873C7.18356 5.82242 7.54023 5.72926 7.94148 5.72926C8.34274 5.72926 8.69941 5.82242 9.01149 6.00873C9.33473 6.19505 9.58551 6.46288 9.76384 6.81223C9.94218 7.16157 10.0313 7.59243 10.0313 8.1048C10.0313 8.60553 9.94218 9.03639 9.76384 9.39738C9.58551 9.75837 9.33473 10.0378 9.01149 10.2358Z" fill="white"/>
</svg>
