<svg width="22" height="22" viewBox="0 0 22 22" fill="none" xmlns="http://www.w3.org/2000/svg">
<path fill-rule="evenodd" clip-rule="evenodd" d="M6 3C4.34315 3 3 4.34315 3 6V16C3 17.6569 4.34315 19 6 19H16C17.6569 19 19 17.6569 19 16V6C19 4.34315 17.6569 3 16 3H6ZM11.3804 4.17082C11.2607 3.8023 10.7393 3.80229 10.6196 4.17082L9.29369 8.25147C9.24014 8.41628 9.08656 8.52786 8.91327 8.52786H4.62262C4.23513 8.52786 4.07402 9.02371 4.38751 9.25147L7.85872 11.7735C7.99891 11.8753 8.05757 12.0559 8.00402 12.2207L6.67814 16.3013C6.5584 16.6698 6.98019 16.9763 7.29368 16.7485L10.7649 14.2265C10.9051 14.1247 11.0949 14.1247 11.2351 14.2265L14.7063 16.7485C15.0198 16.9763 15.4416 16.6698 15.3219 16.3013L13.996 12.2207C13.9424 12.0559 14.0011 11.8753 14.1413 11.7735L17.6125 9.25147C17.926 9.02371 17.7649 8.52786 17.3774 8.52786H13.0867C12.9134 8.52786 12.7599 8.41628 12.7063 8.25147L11.3804 4.17082Z" fill="white"/>
</svg>
