<svg width="16" height="16" viewBox="0 0 16 16" fill="none" xmlns="http://www.w3.org/2000/svg">
<path fill-rule="evenodd" clip-rule="evenodd" d="M3 0C1.34315 0 0 1.34315 0 3V13C0 14.6569 1.34315 16 3 16H13C14.6569 16 16 14.6569 16 13V3C16 1.34315 14.6569 0 13 0H3ZM8.38042 1.17082C8.26068 0.802296 7.73932 0.802295 7.61958 1.17082L6.29369 5.25147C6.24014 5.41628 6.08656 5.52786 5.91327 5.52786H1.62262C1.23513 5.52786 1.07402 6.02371 1.38751 6.25147L4.85872 8.77345C4.99891 8.87531 5.05757 9.05586 5.00402 9.22067L3.67814 13.3013C3.5584 13.6698 3.98019 13.9763 4.29368 13.7485L7.76489 11.2265C7.90508 11.1247 8.09492 11.1247 8.23511 11.2265L11.7063 13.7485C12.0198 13.9763 12.4416 13.6698 12.3219 13.3013L10.996 9.22066C10.9424 9.05586 11.0011 8.87531 11.1413 8.77345L14.6125 6.25147C14.926 6.02371 14.7649 5.52786 14.3774 5.52786H10.0867C9.91344 5.52786 9.75986 5.41628 9.70631 5.25147L8.38042 1.17082Z" fill="white"/>
</svg>
