<svg width="22" height="22" viewBox="0 0 22 22" fill="none" xmlns="http://www.w3.org/2000/svg">
<path d="M10.0351 19C9.54736 19 9.16411 18.8631 8.88538 18.5893C8.60665 18.3156 8.46729 17.9418 8.46729 17.4679C8.46729 16.9835 8.60084 16.3307 8.86796 15.5094C9.14669 14.6775 9.41961 13.9246 9.68673 13.2507C9.96545 12.5768 10.1048 12.1293 10.1048 11.9082C10.1048 11.6765 10.0235 11.5607 9.86093 11.5607C9.50592 11.5607 8.96044 12.1149 8.2245 13.2233C8.03442 13.5096 7.6488 13.6118 7.33994 13.4488C7.00699 13.2731 6.89624 12.8607 7.10848 12.5567C8.66775 10.3238 10.1079 9.2073 11.4288 9.2073C12.4043 9.2073 12.8921 9.76538 12.8921 10.8815C12.8921 11.208 12.776 11.7292 12.5437 12.4452L11.2894 15.6989C11.1617 16.0043 11.0978 16.2833 11.0978 16.536C11.0978 16.7782 11.2023 16.8993 11.4114 16.8993C11.7626 16.8993 12.3756 16.3745 13.2505 15.325C13.4365 15.1018 13.7777 15.0681 14.0012 15.2563C14.1868 15.4125 14.2332 15.6747 14.1021 15.8759C13.5217 16.7669 12.8454 17.4923 12.0733 18.0523C11.2139 18.6841 10.5345 19 10.0351 19ZM15 4.54788C15 4.96907 14.8432 5.35341 14.5296 5.70089C14.2161 6.04837 13.7922 6.22211 13.2579 6.22211C12.7237 6.22211 12.323 6.07996 12.0559 5.79566C11.7888 5.50082 11.6553 5.13228 11.6553 4.69003C11.6553 4.24778 11.8178 3.85818 12.143 3.52122C12.4798 3.17374 12.9095 3 13.4321 3C13.9548 3 14.3438 3.15268 14.5993 3.45805C14.8664 3.75288 15 4.11616 15 4.54788Z" fill="white"/>
</svg>
