<svg width="8" height="16" viewBox="0 0 8 16" fill="none" xmlns="http://www.w3.org/2000/svg">
<path d="M3.03514 16C2.54736 16 2.16411 15.8631 1.88538 15.5893C1.60665 15.3156 1.46729 14.9418 1.46729 14.4679C1.46729 13.9835 1.60084 13.3307 1.86796 12.5094C2.14669 11.6775 2.41961 10.9246 2.68673 10.2507C2.96545 9.57683 3.10482 9.12932 3.10482 8.90819C3.10482 8.67654 3.02352 8.56071 2.86093 8.56071C2.50592 8.56071 1.96044 9.11492 1.2245 10.2233C1.03442 10.5096 0.648802 10.6118 0.339937 10.4488C0.00699289 10.2731 -0.103762 9.86068 0.108483 9.55673C1.66775 7.32378 3.10785 6.2073 4.42878 6.2073C5.40433 6.2073 5.89211 6.76538 5.89211 7.88154C5.89211 8.20796 5.77597 8.72919 5.5437 9.44521L4.28942 12.6989C4.16167 13.0043 4.09779 13.2833 4.09779 13.536C4.09779 13.7782 4.20232 13.8993 4.41136 13.8993C4.76257 13.8993 5.37561 13.3745 6.25049 12.325C6.43653 12.1018 6.77766 12.0681 7.00125 12.2563C7.18679 12.4125 7.23323 12.6747 7.10211 12.8759C6.52166 13.7669 5.84541 14.4923 5.07334 15.0523C4.21393 15.6841 3.53453 16 3.03514 16ZM8 1.54788C8 1.96907 7.84321 2.35341 7.52964 2.70089C7.21607 3.04837 6.79217 3.22211 6.25794 3.22211C5.72371 3.22211 5.32304 3.07996 5.05592 2.79566C4.78881 2.50082 4.65525 2.13228 4.65525 1.69003C4.65525 1.24778 4.81784 0.858177 5.14303 0.521224C5.47982 0.173741 5.90953 0 6.43215 0C6.95477 0 7.34382 0.152682 7.59933 0.458045C7.86644 0.752879 8 1.11616 8 1.54788Z" fill="white"/>
</svg>
