<svg width="16" height="14" viewBox="0 0 16 14" fill="none" xmlns="http://www.w3.org/2000/svg">
<path d="M2 0C0.895431 0 0 0.89543 0 2V4C0 5.10457 0.89543 6 2 6H4C5.10457 6 6 5.10457 6 4V2C6 0.895431 5.10457 0 4 0H2Z" fill="white"/>
<path d="M9 0C7.89543 0 7 0.89543 7 2V4C7 5.10457 7.89543 6 9 6H14C15.1046 6 16 5.10457 16 4V2C16 0.895431 15.1046 0 14 0H9Z" fill="white"/>
<path d="M2 8C0.895431 8 0 8.89543 0 10V12C0 13.1046 0.89543 14 2 14H4C5.10457 14 6 13.1046 6 12V10C6 8.89543 5.10457 8 4 8H2Z" fill="white"/>
<path d="M9 8C7.89543 8 7 8.89543 7 10V12C7 13.1046 7.89543 14 9 14H14C15.1046 14 16 13.1046 16 12V10C16 8.89543 15.1046 8 14 8H9Z" fill="white"/>
</svg>
