<svg width="22" height="22" viewBox="0 0 22 22" fill="none" xmlns="http://www.w3.org/2000/svg">
<path d="M5 4C3.89543 4 3 4.89543 3 6V8C3 9.10457 3.89543 10 5 10H7C8.10457 10 9 9.10457 9 8V6C9 4.89543 8.10457 4 7 4H5Z" fill="white"/>
<path d="M12 4C10.8954 4 10 4.89543 10 6V8C10 9.10457 10.8954 10 12 10H17C18.1046 10 19 9.10457 19 8V6C19 4.89543 18.1046 4 17 4H12Z" fill="white"/>
<path d="M5 12C3.89543 12 3 12.8954 3 14V16C3 17.1046 3.89543 18 5 18H7C8.10457 18 9 17.1046 9 16V14C9 12.8954 8.10457 12 7 12H5Z" fill="white"/>
<path d="M12 12C10.8954 12 10 12.8954 10 14V16C10 17.1046 10.8954 18 12 18H17C18.1046 18 19 17.1046 19 16V14C19 12.8954 18.1046 12 17 12H12Z" fill="white"/>
</svg>
