<svg width="16" height="10" viewBox="0 0 16 10" fill="none" xmlns="http://www.w3.org/2000/svg">
<path d="M2 0C0.895431 0 0 0.895431 0 2C0 3.10457 0.895431 4 2 4C3.10457 4 4 3.10457 4 2C4 0.895431 3.10457 0 2 0Z" fill="white"/>
<path d="M7 0C5.89543 0 5 0.895431 5 2C5 3.10457 5.89543 4 7 4H14C15.1046 4 16 3.10457 16 2C16 0.895431 15.1046 0 14 0H7Z" fill="white"/>
<path d="M2 6C0.895431 6 0 6.89543 0 8C0 9.10457 0.895431 10 2 10C3.10457 10 4 9.10457 4 8C4 6.89543 3.10457 6 2 6Z" fill="white"/>
<path d="M7 6C5.89543 6 5 6.89543 5 8C5 9.10457 5.89543 10 7 10H14C15.1046 10 16 9.10457 16 8C16 6.89543 15.1046 6 14 6H7Z" fill="white"/>
</svg>
