<svg width="22" height="22" viewBox="0 0 22 22" fill="none" xmlns="http://www.w3.org/2000/svg">
<path d="M5 6C3.89543 6 3 6.89543 3 8C3 9.10457 3.89543 10 5 10C6.10457 10 7 9.10457 7 8C7 6.89543 6.10457 6 5 6Z" fill="white"/>
<path d="M10 6C8.89543 6 8 6.89543 8 8C8 9.10457 8.89543 10 10 10H17C18.1046 10 19 9.10457 19 8C19 6.89543 18.1046 6 17 6H10Z" fill="white"/>
<path d="M5 12C3.89543 12 3 12.8954 3 14C3 15.1046 3.89543 16 5 16C6.10457 16 7 15.1046 7 14C7 12.8954 6.10457 12 5 12Z" fill="white"/>
<path d="M10 12C8.89543 12 8 12.8954 8 14C8 15.1046 8.89543 16 10 16H17C18.1046 16 19 15.1046 19 14C19 12.8954 18.1046 12 17 12H10Z" fill="white"/>
</svg>
