<svg width="22" height="22" viewBox="0 0 22 22" fill="none" xmlns="http://www.w3.org/2000/svg">
<path d="M6 10C6 11.6569 4.65685 13 3 13C1.34315 13 0 11.6569 0 10C0 8.34315 1.34315 7 3 7C4.65685 7 6 8.34315 6 10Z" fill="white"/>
<path d="M14 10C14 11.6569 12.6569 13 11 13C9.34315 13 8 11.6569 8 10C8 8.34315 9.34315 7 11 7C12.6569 7 14 8.34315 14 10Z" fill="white"/>
<path d="M19 13C20.6569 13 22 11.6569 22 10C22 8.34315 20.6569 7 19 7C17.3431 7 16 8.34315 16 10C16 11.6569 17.3431 13 19 13Z" fill="white"/>
</svg>
