<svg width="22" height="22" viewBox="0 0 22 22" fill="none" xmlns="http://www.w3.org/2000/svg">
<g clip-path="url(#clip0_997_3644)">
<path d="M11 3C11.737 3 12.3333 3.6512 12.3333 4.45459V9.66667H17.5456C18.349 9.66667 19 10.2635 19 11C19 11.7363 18.349 12.3333 17.5456 12.3333H12.3333V17.5454C12.3333 18.3488 11.737 19 11 19C10.263 19 9.66667 18.3488 9.66667 17.5454V12.3333H4.45443C3.65104 12.3333 3 11.7363 3 11C3 10.2635 3.65104 9.66667 4.45443 9.66667H9.66667V4.45459C9.66667 3.6512 10.263 3 11 3Z" fill="white"/>
</g>
<defs>
<clipPath id="clip0_997_3644">
<rect width="22" height="22" fill="white"/>
</clipPath>
</defs>
</svg>
