<svg width="22" height="22" viewBox="0 0 22 22" fill="none" xmlns="http://www.w3.org/2000/svg">
<path d="M4 5C4 4.44772 4.44772 4 5 4H7C7.55228 4 8 4.44772 8 5V7C8 7.55228 7.55228 8 7 8H5C4.44772 8 4 7.55228 4 7V5Z" fill="white"/>
<path d="M4 10C4 9.44772 4.44772 9 5 9H7C7.55228 9 8 9.44772 8 10V12C8 12.5523 7.55228 13 7 13H5C4.44772 13 4 12.5523 4 12V10Z" fill="white"/>
<path d="M4 15C4 14.4477 4.44772 14 5 14H7C7.55228 14 8 14.4477 8 15V17C8 17.5523 7.55228 18 7 18H5C4.44772 18 4 17.5523 4 17V15Z" fill="white"/>
<path d="M14 5C14 4.44772 14.4477 4 15 4H17C17.5523 4 18 4.44772 18 5V7C18 7.55228 17.5523 8 17 8H15C14.4477 8 14 7.55228 14 7V5Z" fill="white"/>
<path d="M14 10C14 9.44772 14.4477 9 15 9H17C17.5523 9 18 9.44772 18 10V12C18 12.5523 17.5523 13 17 13H15C14.4477 13 14 12.5523 14 12V10Z" fill="white"/>
<path d="M9 5C9 4.44772 9.44772 4 10 4H12C12.5523 4 13 4.44772 13 5V7C13 7.55228 12.5523 8 12 8H10C9.44772 8 9 7.55228 9 7V5Z" fill="white"/>
<path d="M9 10C9 9.44772 9.44772 9 10 9H12C12.5523 9 13 9.44772 13 10V12C13 12.5523 12.5523 13 12 13H10C9.44772 13 9 12.5523 9 12V10Z" fill="white"/>
<path d="M9 15C9 14.4477 9.44772 14 10 14H12C12.5523 14 13 14.4477 13 15V17C13 17.5523 12.5523 18 12 18H10C9.44772 18 9 17.5523 9 17V15Z" fill="white"/>
</svg>
