<svg width="22" height="22" viewBox="0 0 22 22" fill="none" xmlns="http://www.w3.org/2000/svg">
<path fill-rule="evenodd" clip-rule="evenodd" d="M2.3749 9.8879C7.74359 7.62993 11.3236 6.14134 13.1148 5.42212C18.2292 3.36862 19.2919 3.0119 19.9846 3.00013C20.1369 2.99753 20.4776 3.03398 20.6982 3.20682C20.8845 3.35275 20.9358 3.5499 20.9603 3.68826C20.9848 3.82663 21.0154 4.14183 20.9911 4.38811C20.714 7.1992 19.5147 14.021 18.9046 17.1694C18.6465 18.5017 18.1382 18.9484 17.6461 18.9921C16.5766 19.0871 15.7645 18.3098 14.7287 17.6543C13.1078 16.6287 12.1921 15.9902 10.6188 14.9893C8.80053 13.8327 9.97923 13.1969 11.0154 12.158C11.2866 11.8861 15.9987 7.74868 16.0899 7.37335C16.1013 7.32641 16.1119 7.15143 16.0042 7.05904C15.8965 6.96664 15.7376 6.99824 15.6229 7.02337C15.4604 7.05898 12.871 8.71112 7.85486 11.9798C7.11988 12.467 6.45416 12.7044 5.8577 12.6919C5.20015 12.6782 3.93528 12.333 2.99498 12.038C1.84166 11.6761 0.925027 11.4847 1.00485 10.8701C1.04642 10.55 1.5031 10.2226 2.3749 9.8879Z" fill="white"/>
</svg>
