<svg width="16" height="16" viewBox="0 0 16 16" fill="none" xmlns="http://www.w3.org/2000/svg">
<path d="M0.378776 0H15.6865L16 4.74604H15.0857C14.9638 3.92384 14.8071 3.25946 14.6155 2.75292C14.4239 2.24639 14.1497 1.85731 13.7927 1.58568C13.4444 1.30672 12.9916 1.11952 12.4343 1.02409C11.877 0.928653 11.1761 0.880936 10.3314 0.880936H9.27347V15.1191H12.1469V16H3.85306V15.1191H6.72653V0.880936H5.73388C5.16789 0.880936 4.66721 0.899289 4.23184 0.935995C3.79646 0.9727 3.41333 1.04244 3.08245 1.14522C2.76027 1.24799 2.48163 1.39114 2.24653 1.57467C2.01143 1.7582 1.81116 1.99312 1.64571 2.27942C1.48027 2.56573 1.3366 2.91076 1.21469 3.31452C1.1015 3.71828 1.00136 4.19546 0.914286 4.74604H0L0.378776 0Z" fill="white"/>
</svg>
