<svg width="22" height="22" viewBox="0 0 22 22" fill="none" xmlns="http://www.w3.org/2000/svg">
<path d="M3.37878 3H18.6865L19 7.74604H18.0857C17.9638 6.92384 17.8071 6.25946 17.6155 5.75292C17.4239 5.24639 17.1497 4.85731 16.7927 4.58568C16.4444 4.30672 15.9916 4.11952 15.4343 4.02409C14.877 3.92865 14.1761 3.88094 13.3314 3.88094H12.2735V18.1191H15.1469V19H6.85306V18.1191H9.72653V3.88094H8.73388C8.16789 3.88094 7.66721 3.89929 7.23184 3.93599C6.79646 3.9727 6.41333 4.04244 6.08245 4.14522C5.76027 4.24799 5.48163 4.39114 5.24653 4.57467C5.01143 4.7582 4.81116 4.99312 4.64571 5.27942C4.48027 5.56573 4.3366 5.91076 4.21469 6.31452C4.1015 6.71828 4.00136 7.19546 3.91429 7.74604H3L3.37878 3Z" fill="white"/>
</svg>
