<svg width="64" height="64" viewBox="0 0 64 64" fill="none" xmlns="http://www.w3.org/2000/svg">
<g clip-path="url(#clip0_616_5302)">
<path fill-rule="evenodd" clip-rule="evenodd" d="M22.1571 41.1373C22.8378 48.7674 24.3494 55.2054 26.3421 59.2858C23.4853 58.0611 20.7956 55.7855 18.5169 52.5302C16.1312 49.122 14.3013 44.7591 13.3485 39.8016C16.0085 40.375 18.9738 40.8289 22.1571 41.1373ZM25.8563 41.4233C26.3085 46.1271 27.0856 50.2797 28.0747 53.5765C28.8863 56.2818 29.78 58.2046 30.6062 59.3695C30.9445 59.8464 31.1988 60.1018 31.36 60.2349C31.5212 60.1018 31.7755 59.8464 32.1138 59.3695C32.94 58.2046 33.8337 56.2818 34.6453 53.5765C35.6297 50.2954 36.4042 46.1665 36.8572 41.4901C35.2733 41.5625 33.6513 41.6 32 41.6C29.8986 41.6 27.8446 41.5393 25.8563 41.4233ZM37.139 37.8153C35.4734 37.899 33.7567 37.9429 32 37.9429C29.7881 37.9429 27.6396 37.8733 25.5769 37.7424C25.4723 35.889 25.4171 33.9696 25.4171 32C25.4171 30.0304 25.4723 28.111 25.5769 26.2577C27.6396 26.1268 29.7881 26.0572 32 26.0572C33.7567 26.0572 35.4734 26.1011 37.139 26.1847C37.2462 28.0606 37.3029 30.0045 37.3029 32C37.3029 33.9955 37.2462 35.9394 37.139 37.8153ZM40.5525 41.2533C39.8668 48.8327 38.3605 55.2261 36.3779 59.2858C39.2347 58.0611 41.9245 55.7855 44.2031 52.5302C46.545 49.1846 48.3513 44.9189 49.3181 40.074C46.6434 40.5914 43.695 40.9925 40.5525 41.2533ZM49.8927 36.2241C47.2 36.8051 44.1396 37.2633 40.8156 37.56C40.9105 35.7542 40.96 33.8964 40.96 32C40.96 30.1036 40.9105 28.2458 40.8156 26.44C44.1396 26.7367 47.2 27.195 49.8927 27.7759C50.0308 29.1507 50.1029 30.561 50.1029 32C50.1029 33.4391 50.0308 34.8493 49.8927 36.2241ZM53.1918 39.1933C52.0411 46.3498 49.2106 52.59 45.3248 57.0217C52.9486 52.9533 58.4946 45.5026 59.9594 36.6731C58.1886 37.6246 55.8936 38.4764 53.1918 39.1933ZM64 32C64 49.9439 49.0339 64 31.36 64C14.1816 64 0.000509899 48.933 1.48272e-08 32.001C4.94237e-09 32.0007 0 32.0003 0 32C0 31.9995 1.36015e-08 31.9989 4.08042e-08 31.9984C0.000871345 14.5569 13.9529 0 31.36 0C49.0331 0 64 14.3269 64 32ZM4.04056 36.6731C5.3391 44.5004 9.84502 51.2442 16.1625 55.5086C12.8483 51.134 10.4612 45.3472 9.4694 38.8172C7.34311 38.1847 5.51113 37.4633 4.04056 36.6731ZM12.7984 35.9251C15.4573 36.5677 18.529 37.0856 21.8979 37.4358C21.8072 35.6691 21.76 33.8529 21.76 32C21.76 30.1471 21.8072 28.3309 21.8979 26.5642C18.529 26.9144 15.4572 27.4323 12.7984 28.075C12.6791 29.355 12.6171 30.6651 12.6171 32C12.6171 33.3349 12.6791 34.645 12.7984 35.9251ZM9.04719 29.1571C8.98947 30.0937 8.96 31.0419 8.96 32C8.96 32.9581 8.98947 33.9063 9.04719 34.843C7.05479 34.1563 5.58707 33.4323 4.63049 32.7538C4.15355 32.4155 3.89823 32.1612 3.76507 32C3.89823 31.8388 4.15355 31.5845 4.63049 31.2462C5.58707 30.5678 7.05479 29.8437 9.04719 29.1571ZM9.46939 25.1829C7.3431 25.8154 5.51113 26.5368 4.04056 27.3269C5.33908 19.4996 9.84501 12.7558 16.1625 8.49142C12.8483 12.866 10.4612 18.6528 9.46939 25.1829ZM13.3485 24.1984C16.0085 23.6251 18.9738 23.1711 22.1571 22.8627C22.8378 15.2326 24.3494 8.79463 26.3421 4.71415C23.4853 5.93894 20.7956 8.21454 18.5169 11.4698C16.1312 14.878 14.3013 19.241 13.3485 24.1984ZM25.8563 22.5768C27.8446 22.4608 29.8986 22.4 32 22.4C33.6513 22.4 35.2733 22.4375 36.8572 22.5099C36.4042 17.8335 35.6297 13.7046 34.6453 10.4235C33.8337 7.71819 32.94 5.79536 32.1138 4.63049C31.7755 4.15355 31.5212 3.89823 31.36 3.76507C31.1988 3.89823 30.9445 4.15355 30.6062 4.63049C29.78 5.79536 28.8863 7.71819 28.0747 10.4235C27.0856 13.7203 26.3085 17.8729 25.8563 22.5768ZM40.5525 22.7467C43.695 23.0076 46.6434 23.4086 49.3182 23.926C48.3513 19.0811 46.5451 14.8154 44.2031 11.4698C41.9244 8.21454 39.2347 5.93894 36.3779 4.71415C38.3605 8.77394 39.8668 15.1673 40.5525 22.7467ZM53.1918 24.8067C52.0411 17.6503 49.2106 11.41 45.3248 6.97834C52.9486 11.0467 58.4947 18.4974 59.9594 27.327C58.1886 26.3754 55.8937 25.5236 53.1918 24.8067ZM53.6449 28.7353C56.3142 29.5414 58.2145 30.427 59.3695 31.2463C59.8464 31.5845 60.1018 31.8388 60.2349 32C60.1018 32.1612 59.8464 32.4155 59.3695 32.7538C58.2145 33.573 56.3142 34.4587 53.6448 35.2648C53.721 34.1913 53.76 33.1022 53.76 32C53.76 30.8979 53.721 29.8087 53.6449 28.7353Z" fill="white"/>
</g>
<defs>
<clipPath id="clip0_616_5302">
<rect width="64" height="64" fill="white"/>
</clipPath>
</defs>
</svg>
